<svg id="Layer_1" data-name="Layer 1" xmlns="http://www.w3.org/2000/svg" width="126.54" height="66.34" viewBox="0 0 126.54 66.34"><defs><style>.cls-1{fill:#65666a;}.cls-2{fill:#f48220;}</style></defs><title>aruba_hp_lockup_140x68-01</title><g id="_Group_" data-name="&lt;Group&gt;"><path id="_Compound_Path_" data-name="&lt;Compound Path&gt;" class="cls-1" d="M4.61,41.53c0-.81-.6-1.3-1.55-1.3a3.26,3.26,0,0,0-1.84.57v-1a3.73,3.73,0,0,1,2-.54,2.15,2.15,0,0,1,2.44,2.22v4.4H4.61v-.48a2.54,2.54,0,0,1-1.68.6A2.17,2.17,0,0,1,.52,43.88a2.21,2.21,0,0,1,2.47-2,2.74,2.74,0,0,1,1.62.52v-.85h0Zm0,2a1.57,1.57,0,0,0-1.51-.81c-.79,0-1.55.35-1.55,1.13S2.31,45,3.1,45a1.57,1.57,0,0,0,1.51-.8Zm13.77-6.69v9H17.23V41.75H12.15v4.09H11v-9h1.15v3.84h5.07V36.87Zm2.7,5.92A2.07,2.07,0,0,0,23.25,45a2.82,2.82,0,0,0,1.84-.61v1a3.13,3.13,0,0,1-2,.57A3,3,0,0,1,20,42.65c0-2,1.17-3.44,2.89-3.44s2.66,1.27,2.66,3.17v.4H21.08Zm.06-.86h3.34c0-1-.52-1.77-1.58-1.77C22,40.15,21.34,40.73,21.13,41.92Zm11.23,2.38,1.43-5h1.07l-1.91,6.49H31.88l-1.34-4.92-1.36,4.92H28.11L26.2,39.35h1.1l1.43,5,1.33-5h1Zm4.78,1.53H36.06V36.35h1.09Zm2.55-3.05A2.07,2.07,0,0,0,41.88,45a2.82,2.82,0,0,0,1.84-.61v1a3.13,3.13,0,0,1-2,.57,3,3,0,0,1-3.13-3.32c0-2,1.17-3.44,2.89-3.44s2.66,1.27,2.66,3.17v.4H39.7Zm.06-.86H43.1c0-1-.53-1.77-1.58-1.77C40.66,40.15,40,40.73,39.76,41.92Zm7.64,3.91H46.3V40.29H44.94v-.94H46.3V37.64h1.1v1.71h1.5v.94h-1.5Zm4.86,0H51.16V40.29H49.8v-.94h1.36V37.64h1.09v1.71h1.51v.94H52.26Zm7.45-3.59v3.59H58.55v-9h3.31c1.81,0,3,.92,3,2.69s-1.18,2.69-3,2.69Zm2.15-4.37H59.71v3.35h2.15c1.21,0,1.87-.66,1.87-1.67S63.06,37.88,61.85,37.88Zm7.8,3.65c0-.81-.6-1.3-1.55-1.3a3.26,3.26,0,0,0-1.84.57v-1a3.74,3.74,0,0,1,2-.54,2.15,2.15,0,0,1,2.44,2.22v4.4H69.66v-.48A2.54,2.54,0,0,1,68,46a2.17,2.17,0,0,1-2.41-2.07,2.21,2.21,0,0,1,2.47-2,2.72,2.72,0,0,1,1.62.52Zm0,2a1.57,1.57,0,0,0-1.5-.81c-.79,0-1.55.35-1.55,1.13S67.36,45,68.15,45a1.57,1.57,0,0,0,1.5-.8Zm5.59-4.34a2.65,2.65,0,0,1,1.74.54v1.11a2.26,2.26,0,0,0-1.67-.67,2.16,2.16,0,0,0-2.09,2.39A2.16,2.16,0,0,0,75.32,45,2.27,2.27,0,0,0,77,44.32v1.11a2.65,2.65,0,0,1-1.74.54,3.12,3.12,0,0,1-3.12-3.37A3.12,3.12,0,0,1,75.24,39.22Zm8.69,6.62H82.57l-3-3.21v3.21H78.48V36.35h1.09v5.74l2.88-2.73h1.42l-3.19,3Zm4.53-4.31c0-.81-.6-1.3-1.55-1.3a3.27,3.27,0,0,0-1.84.57v-1a3.75,3.75,0,0,1,2-.54,2.15,2.15,0,0,1,2.44,2.22v4.4H88.46v-.48a2.54,2.54,0,0,1-1.68.6,2.17,2.17,0,0,1-2.41-2.07,2.21,2.21,0,0,1,2.47-2,2.73,2.73,0,0,1,1.62.52v-.85Zm0,2A1.57,1.57,0,0,0,87,42.75c-.79,0-1.55.35-1.55,1.13S86.16,45,87,45a1.58,1.58,0,0,0,1.51-.8Zm6.2-3.11a1.39,1.39,0,0,0-.73-.17,1.57,1.57,0,0,0-1.5,1.22v4.35h-1.1V39.35h1.1v.85a1.81,1.81,0,0,1,1.61-1,1.56,1.56,0,0,1,.63.1v1.12Zm5.51,4.63a2.29,2.29,0,0,1-1.82.89c-1.9,0-2.92-1.53-2.92-3.37s1-3.37,2.92-3.37a2.28,2.28,0,0,1,1.82.89V36.35h1.11v9.49h-1.11Zm0-3.8a1.86,1.86,0,0,0-1.66-1.07c-1.24,0-2,1-2,2.38s.73,2.38,2,2.38a1.86,1.86,0,0,0,1.66-1.07ZM2.42,51.47v1H-2.16v2.83H2v1H-2.16V59.4H2.42v1H-3.29v-9H2.42ZM3.89,54H5v.82a2.42,2.42,0,0,1,1.91-1,2.15,2.15,0,0,1,2.28,2.37v4.25H8.07V56.36a1.35,1.35,0,0,0-1.43-1.53A1.76,1.76,0,0,0,5,56v4.4H3.89Zm8.8,6.49H11.6V54.89H10.24V54H11.6V52.24h1.1V54h1.5v.93h-1.5v5.55ZM16,57.39a2.07,2.07,0,0,0,2.18,2.22A2.82,2.82,0,0,0,20,59v1a3.12,3.12,0,0,1-2,.57,3,3,0,0,1-3.12-3.32c0-2,1.17-3.44,2.89-3.44S20.45,55.1,20.45,57v.39H16Zm.06-.86h3.34c0-.95-.53-1.77-1.58-1.77C16.94,54.76,16.24,55.33,16,56.53ZM25.24,55a1.39,1.39,0,0,0-.73-.17A1.57,1.57,0,0,0,23,56.09v4.35H21.91V54H23v.85a1.82,1.82,0,0,1,1.61-1,1.57,1.57,0,0,1,.63.1V55Zm2.33,7.87H26.48V54h1.09v.76a2.31,2.31,0,0,1,1.83-.9c1.91,0,2.92,1.58,2.92,3.37s-1,3.38-2.92,3.38a2.31,2.31,0,0,1-1.83-.89v3.24Zm0-4.41a1.87,1.87,0,0,0,1.67,1.06c1.24,0,2-1,2-2.38s-.73-2.38-2-2.38a1.87,1.87,0,0,0-1.67,1.07ZM37.12,55a1.4,1.4,0,0,0-.73-.17,1.57,1.57,0,0,0-1.51,1.21v4.35H33.79V54h1.09v.85a1.82,1.82,0,0,1,1.61-1,1.57,1.57,0,0,1,.63.1ZM38.9,52.7a.71.71,0,0,1-.7-.7.71.71,0,0,1,1.42,0A.71.71,0,0,1,38.9,52.7Zm.56,7.74h-1.1V54h1.1ZM41,58.76a3.14,3.14,0,0,0,2.13.88c.72,0,1.34-.26,1.34-.91,0-.48-.37-.74-.93-.93l-.89-.31c-1-.32-1.63-.79-1.63-1.84s1-1.83,2.29-1.83a3.36,3.36,0,0,1,1.93.57v1.14a2.9,2.9,0,0,0-1.93-.78c-.67,0-1.23.29-1.23.85s.35.7,1,.92l1,.33a1.88,1.88,0,0,1,1.52,1.83c0,1.2-1.07,1.88-2.42,1.88A3.58,3.58,0,0,1,41,59.93V58.76Zm6.7-1.37a2.07,2.07,0,0,0,2.17,2.22A2.83,2.83,0,0,0,51.73,59v1a3.13,3.13,0,0,1-2,.57,3,3,0,0,1-3.13-3.32c0-2,1.17-3.44,2.89-3.44S52.18,55.1,52.18,57v.39H47.71Zm.06-.86h3.34c0-.95-.53-1.77-1.58-1.77C48.68,54.76,48,55.33,47.77,56.53Zm11.93-2.7a2.67,2.67,0,0,1,1.74.54v1.11a2.27,2.27,0,0,0-1.67-.67,2.42,2.42,0,0,0,0,4.79,2.27,2.27,0,0,0,1.67-.67V60a2.64,2.64,0,0,1-1.74.54,3.38,3.38,0,0,1,0-6.75Zm5.67,6.75c-1.78,0-3-1.39-3-3.38s1.19-3.37,3-3.37,3,1.39,3,3.37S67.14,60.57,65.37,60.57Zm0-5.79c-1.17,0-1.87,1-1.87,2.41s.7,2.41,1.87,2.41,1.87-1,1.87-2.41S66.54,54.79,65.37,54.79Zm11-1c1.31,0,2,.92,2,2.33v4.29H77.33V56.32c0-.9-.39-1.51-1.23-1.51A1.51,1.51,0,0,0,74.67,56v4.47h-1.1V56.32c0-.9-.39-1.51-1.23-1.51A1.52,1.52,0,0,0,70.91,56v4.47H69.82V54h1.09v.76a2,2,0,0,1,1.75-.9,1.91,1.91,0,0,1,1.75,1A2.34,2.34,0,0,1,76.39,53.82Zm5,9.1h-1.1V54h1.1v.76a2.31,2.31,0,0,1,1.83-.9c1.91,0,2.92,1.58,2.92,3.37s-1,3.38-2.92,3.38a2.31,2.31,0,0,1-1.83-.89Zm0-4.41A1.87,1.87,0,0,0,83,59.58c1.24,0,2-1,2-2.38s-.73-2.38-2-2.38a1.87,1.87,0,0,0-1.67,1.07Zm9.87-2.38c0-.8-.6-1.3-1.55-1.3a3.27,3.27,0,0,0-1.84.57v-1a3.75,3.75,0,0,1,2-.54A2.15,2.15,0,0,1,92.29,56v4.4H91.22V60a2.54,2.54,0,0,1-1.68.6,2.17,2.17,0,0,1-2.41-2.07,2.21,2.21,0,0,1,2.47-2,2.72,2.72,0,0,1,1.62.52Zm0,2a1.56,1.56,0,0,0-1.5-.8c-.79,0-1.55.35-1.55,1.12s.76,1.15,1.55,1.15a1.57,1.57,0,0,0,1.5-.81ZM94.1,54h1.1v.82a2.42,2.42,0,0,1,1.91-1,2.14,2.14,0,0,1,2.28,2.37v4.25H98.28V56.36a1.35,1.35,0,0,0-1.43-1.53A1.76,1.76,0,0,0,95.19,56v4.4H94.1Zm7.7,9,1-2.44L100.25,54h1.18l1.91,5.11L105.23,54h1.14l-3.49,9Z" transform="translate(12.18 3.41)"/><path id="_Compound_Path_2" data-name="&lt;Compound Path&gt;" class="cls-2" d="M59.63,16.1h0a12.15,12.15,0,1,1-24.3,0h0V5.56a8,8,0,0,1,5.84,7.61V16a6.56,6.56,0,0,0,6.31,6.75A6.55,6.55,0,0,0,53.79,16v-6c.24-5.14,4.6-6.79,5.72-7.32h.12V16.1ZM28.37,3.79a13,13,0,0,1,4.55.83v6.51a7,7,0,0,0-4.55-1.66,6.84,6.84,0,0,0-6.93,6.74V28.47H15.6V6.09a9,9,0,0,1,3.94,1.17,12.89,12.89,0,0,1,8.83-3.47M.5,23a6.94,6.94,0,0,1-7-6.83,6.94,6.94,0,0,1,7-6.84,6.94,6.94,0,0,1,7,6.84A6.94,6.94,0,0,1,.5,23M.5,3.79A12.52,12.52,0,0,0-12.18,16.13,12.51,12.51,0,0,0,.51,28.46a12.83,12.83,0,0,0,7.7-2.55c1.31,2.14,5,2.55,5,2.55V16.13A12.52,12.52,0,0,0,.5,3.79M101.68,23a6.94,6.94,0,0,1-7-6.83,7,7,0,0,1,14.06,0,6.93,6.93,0,0,1-7,6.83m0-19.16A12.51,12.51,0,0,0,89,16.13a12.51,12.51,0,0,0,12.69,12.33,12.82,12.82,0,0,0,7.69-2.55c1.31,2.14,5,2.55,5,2.55V16.13A12.52,12.52,0,0,0,101.68,3.79M74.85,23a6.93,6.93,0,0,1-7-6.83,7,7,0,0,1,14.06,0,6.94,6.94,0,0,1-7,6.83m0-19.16a12.89,12.89,0,0,0-7,2V3.91c-.24-5.14-4.46-6.79-5.58-7.32h-.12v32s3.79-.4,5.22-2.47a12.82,12.82,0,0,0,7.47,2.39A12.51,12.51,0,0,0,87.54,16.13,12.52,12.52,0,0,0,74.85,3.79" transform="translate(12.18 3.41)"/></g></svg>